<svg width="119" height="21" viewBox="0 0 119 21" fill="none" xmlns="http://www.w3.org/2000/svg">
<path d="M18.813 19.9803L11.8362 1.87318H7.00398L6.33233e-06 19.9803H4.39785L5.53803 16.9127H13.3021L14.4152 19.9803H18.813ZM12.2434 13.5193H6.59677L9.42007 5.72808L12.2434 13.5193ZM31.5883 11.8905V9.74586H26.7289V4.45217H24.3671V9.74586H19.4806V11.8905H24.3671V17.4014H26.7289V11.8905H31.5883ZM47.7237 20.1432C51.0899 20.1432 54.1847 18.2429 54.1847 14.7138C54.1847 11.1032 51.4428 10.2345 48.2123 8.9586C45.7962 8.03559 44.0588 7.35691 44.0859 5.5109C44.1131 3.6649 45.7148 2.6876 47.5336 2.6876C48.9724 2.6876 50.6284 3.36628 52.1758 4.6422L53.6146 2.76904C51.7957 1.30309 49.6783 0.515826 47.5336 0.515826C44.2217 0.515826 41.6427 2.74189 41.6427 5.61949C41.6427 9.01289 44.5474 10.2345 47.3979 11.2933C49.9769 12.2706 51.7143 12.8406 51.7143 14.9853C51.7143 16.8584 50.1126 17.9443 47.7508 17.9443C45.8777 17.9443 43.8145 17.0756 42.43 15.3382L40.9097 17.157C42.8372 19.2202 45.3076 20.1432 47.7237 20.1432ZM61.2994 20.1432C62.8739 20.1432 63.7698 19.7632 64.5027 19.3288L63.9326 17.4014C63.2811 17.7543 62.4667 18.08 61.6794 18.08C60.4307 18.08 60.0777 17.3199 60.0777 15.7182V8.65998H64.4484V6.75967H60.0777V2.00892L57.8788 2.25324V6.75967H56.1686V8.65998H57.8788V16.044C57.8788 18.7044 58.9647 20.1432 61.2994 20.1432ZM72.0586 20.1432C73.796 20.1432 75.4248 19.2745 76.4293 17.7H76.4564V19.9803H78.6553V6.75967H76.4564V13.1664C76.4564 16.3155 74.6375 18.1343 72.5201 18.1343C70.4297 18.1343 69.2896 16.9942 69.2896 14.008V6.75967H67.0906V14.6324C67.0906 18.4058 69.0181 20.1432 72.0586 20.1432ZM88.2525 20.1432C90.3971 20.1432 92.0802 19.1388 93.0304 17.5371H93.0575V19.9803H95.175V2.85555e-05H92.9761V9.12148H92.9489C91.9445 7.5198 90.2342 6.59679 88.2253 6.59679C84.5062 6.59679 81.7643 9.55583 81.7643 13.465C81.7643 17.4828 84.5876 20.1432 88.2525 20.1432ZM88.5511 18.1343C85.8635 18.1343 84.0175 16.1254 84.0175 13.465C84.0175 10.5331 86.0536 8.60568 88.5782 8.60568C91.2387 8.60568 93.0575 10.7503 93.0575 13.465C93.0575 16.2612 91.0486 18.1343 88.5511 18.1343ZM100.558 4.34358C101.454 4.34358 102.159 3.63775 102.159 2.76904C102.159 1.90033 101.454 1.1945 100.558 1.1945C99.6619 1.1945 98.9561 1.90033 98.9561 2.76904C98.9561 3.63775 99.6619 4.34358 100.558 4.34358ZM99.4447 6.75967V19.9803H101.644V6.75967H99.4447ZM111.936 20.1432C115.845 20.1432 118.75 17.4014 118.75 13.3836C118.75 9.3658 115.845 6.59679 111.936 6.59679C107.836 6.59679 105.095 9.58298 105.095 13.3836C105.095 17.1842 107.836 20.1432 111.936 20.1432ZM111.936 18.1343C109.194 18.1343 107.348 16.0169 107.348 13.3836C107.348 10.7503 109.167 8.60568 111.936 8.60568C114.487 8.60568 116.496 10.5603 116.496 13.3836C116.496 16.2069 114.46 18.1343 111.936 18.1343Z" fill="black"/>
</svg>
